<?xml version="1.0" standalone="no"?>
<!DOCTYPE svg PUBLIC "-//W3C//DTD SVG 20010904//EN"
 "http://www.w3.org/TR/2001/REC-SVG-20010904/DTD/svg10.dtd">
<svg version="1.0" xmlns="http://www.w3.org/2000/svg"
 width="700.000000pt" height="700.000000pt" viewBox="0 0 700.000000 700.000000"
 preserveAspectRatio="xMidYMid meet">
<metadata>
Created by potrace 1.14, written by Peter Selinger 2001-2017
</metadata>
<g transform="translate(0.000000,700.000000) scale(0.100000,-0.100000)"
fill="#000000" stroke="none">
<path d="M5888 6680 c-101 -21 -207 -70 -281 -132 -66 -54 -416 -357 -557
-482 -19 -17 -66 -58 -105 -91 -38 -33 -74 -65 -80 -71 -5 -5 -42 -38 -81 -72
l-70 -61 -80 66 c-105 89 -205 153 -332 214 -95 46 -272 114 -319 123 -11 2
-48 11 -84 20 -160 40 -258 51 -444 51 -166 0 -223 -7 -370 -45 -174 -46 -327
-108 -690 -281 -49 -24 -92 -43 -95 -44 -3 -1 -40 -17 -82 -38 -42 -20 -159
-68 -260 -108 -101 -39 -192 -75 -203 -79 -11 -5 -47 -18 -80 -31 -33 -12 -73
-28 -90 -35 -16 -6 -59 -24 -95 -39 -210 -87 -380 -188 -514 -304 -121 -105
-238 -266 -344 -471 -94 -182 -175 -412 -196 -555 -4 -22 -11 -65 -16 -95 -5
-30 -8 -125 -6 -210 3 -127 8 -173 30 -254 66 -252 188 -399 442 -529 88 -45
257 -118 319 -139 l30 -10 -111 -111 c-165 -166 -248 -276 -329 -436 -62 -124
-121 -308 -140 -436 -3 -23 -7 -50 -9 -60 -7 -38 -16 -141 -21 -250 -3 -60 -7
-153 -10 -205 -15 -270 -40 -345 -149 -429 -67 -53 -87 -76 -118 -136 -73
-144 -46 -313 69 -423 190 -181 761 -241 1210 -126 131 33 119 30 198 57 231
80 440 190 648 340 64 46 83 54 101 47 19 -7 89 -19 211 -36 52 -7 174 -14
340 -19 185 -6 428 -15 500 -20 350 -22 690 -22 803 0 11 2 43 6 73 10 354 43
719 230 1028 528 150 145 308 347 385 492 14 28 30 57 35 65 26 43 76 164 111
268 37 112 61 219 76 348 9 80 11 338 3 394 -4 25 -9 68 -13 95 -24 205 -116
532 -183 655 -66 120 -169 230 -378 405 -71 60 -150 128 -175 152 -25 24 -48
43 -52 43 -21 0 0 32 84 129 51 58 95 108 98 111 3 3 21 23 40 45 19 23 62 72
96 110 34 39 143 165 244 280 101 116 209 239 240 275 31 36 72 83 91 105 19
22 37 42 40 45 5 4 88 100 169 194 76 89 107 126 124 146 34 43 93 168 110
237 17 64 23 220 12 272 -29 134 -88 251 -170 339 -167 178 -390 250 -628 202z"/>
</g>
</svg>
