<!DOCTYPE svg PUBLIC "-//W3C//DTD SVG 1.1//EN" "http://www.w3.org/Graphics/SVG/1.1/DTD/svg11.dtd">
<!-- Uploaded to: SVG Repo, www.svgrepo.com, Transformed by: SVG Repo Mixer Tools -->
<svg fill="#ffffff" version="1.1" id="Capa_1" xmlns="http://www.w3.org/2000/svg" xmlns:xlink="http://www.w3.org/1999/xlink" width="217px" height="217px" viewBox="-34.75 -34.75 417.02 417.02" xml:space="preserve" stroke="#ffffff" stroke-width="0.0034752300000000006">
<g id="SVGRepo_bgCarrier" stroke-width="0" transform="translate(0,0), scale(1)">
<path transform="translate(-34.75, -34.75), scale(13.031875)" d="M16,28.605613924955065C18.33861547398402,28.744119824259208,20.784248208945243,28.965324547291253,22.872660394659952,27.90379698671741C24.999411570506123,26.82278194424344,26.77027699232862,24.936327985162148,27.61118176399504,22.703718917052214C28.413041776114497,20.574774005888358,28.154553421985216,18.130257074667988,27.35618589406735,16C26.66559280227538,14.157313808411763,24.427158663582794,13.406319340586633,23.480244532100368,11.681278805787628C22.501470862294347,9.898198166610687,23.187296975307376,7.424247483487099,21.82140955877932,5.917022872527108C20.3796039754833,4.326024351662819,18.145305175282783,3.5150126543729825,16,3.4270050506058496C13.823580394082915,3.337721028679542,11.887577910366362,4.545222245826974,9.896142374332017,5.427808470176313C7.690669606305011,6.405254060564065,5.092251264743242,6.93125920037536,3.6800715089836427,8.887085969314757C2.240303934167678,10.881121043384598,1.301812664555713,13.735945344929583,2.262626416000881,15.999999999999998C3.2704284094314104,18.37477741256688,7.11046429202743,18.158632997624082,8.529108210035119,20.313321386022782C9.812891835241764,22.26317901790399,8.019181143937123,25.382207763443517,9.581805949736577,27.116638187892512C11.077326852142818,28.776586848572933,13.76962711806745,28.473518757864866,16,28.605613924955065" fill="#b98efb" strokewidth="0"/>
</g>
<g id="SVGRepo_tracerCarrier" stroke-linecap="round" stroke-linejoin="round" stroke="#000000" stroke-width="33.362208"> <g> <g> <path d="M108.674,196.125c-2.857-0.402-5.777-0.592-8.746-0.534c-14.267,0.278-36.342,6.092-60.493,32.207 c-19.171,20.729-19.954,42.635-20.644,61.961c-0.66,18.474-1.181,33.065-16.507,43.727c-1.506,1.049-2.318,2.837-2.113,4.661 c0.128,1.147,0.645,2.191,1.434,2.98c0.466,0.466,1.026,0.843,1.658,1.099c28.523,11.553,77.316,5.895,117.044-33.833 c18.043-18.044,28.812-37.145,31.14-55.233c0.607-4.719,0.618-9.323,0.091-13.763L108.674,196.125z M100.915,229.382 c-1.553,2.174-3.859,3.612-6.494,4.052c-19.209,3.202-25.884,15.953-26.159,16.494c-1.627,3.387-5.167,5.611-8.989,5.611 c-0.337,0-0.676-0.017-1.015-0.052c-1.149-0.117-2.264-0.432-3.313-0.936c-4.97-2.391-7.069-8.376-4.681-13.347 c0.442-0.918,11.153-22.546,40.869-27.5c0.546-0.09,1.1-0.136,1.647-0.136c4.908,0,9.055,3.516,9.861,8.357 C103.08,224.559,102.467,227.207,100.915,229.382z"/> <path d="M340.587,6.796c-8.615-8.614-22.425-9.1-31.624-1.112c-5.782,5.021-141.818,123.166-160.166,141.513 c-9.175,9.175-20.946,24.898-31.124,39.428l42.864,43.271c14.546-10.18,30.345-22.003,39.65-31.308 C218.749,180.024,336.69,44.193,341.703,38.42C349.688,29.22,349.201,15.41,340.587,6.796z"/> </g> </g> </g>
<g id="SVGRepo_iconCarrier"> <g> <g> <path d="M108.674,196.125c-2.857-0.402-5.777-0.592-8.746-0.534c-14.267,0.278-36.342,6.092-60.493,32.207 c-19.171,20.729-19.954,42.635-20.644,61.961c-0.66,18.474-1.181,33.065-16.507,43.727c-1.506,1.049-2.318,2.837-2.113,4.661 c0.128,1.147,0.645,2.191,1.434,2.98c0.466,0.466,1.026,0.843,1.658,1.099c28.523,11.553,77.316,5.895,117.044-33.833 c18.043-18.044,28.812-37.145,31.14-55.233c0.607-4.719,0.618-9.323,0.091-13.763L108.674,196.125z M100.915,229.382 c-1.553,2.174-3.859,3.612-6.494,4.052c-19.209,3.202-25.884,15.953-26.159,16.494c-1.627,3.387-5.167,5.611-8.989,5.611 c-0.337,0-0.676-0.017-1.015-0.052c-1.149-0.117-2.264-0.432-3.313-0.936c-4.97-2.391-7.069-8.376-4.681-13.347 c0.442-0.918,11.153-22.546,40.869-27.5c0.546-0.09,1.1-0.136,1.647-0.136c4.908,0,9.055,3.516,9.861,8.357 C103.08,224.559,102.467,227.207,100.915,229.382z"/> <path d="M340.587,6.796c-8.615-8.614-22.425-9.1-31.624-1.112c-5.782,5.021-141.818,123.166-160.166,141.513 c-9.175,9.175-20.946,24.898-31.124,39.428l42.864,43.271c14.546-10.18,30.345-22.003,39.65-31.308 C218.749,180.024,336.69,44.193,341.703,38.42C349.688,29.22,349.201,15.41,340.587,6.796z"/> </g> </g> </g>
</svg>