<?xml version="1.0" standalone="no"?>
<!DOCTYPE svg PUBLIC "-//W3C//DTD SVG 20010904//EN"
 "http://www.w3.org/TR/2001/REC-SVG-20010904/DTD/svg10.dtd">
<svg version="1.0" xmlns="http://www.w3.org/2000/svg"
 width="512.000000pt" height="512.000000pt" viewBox="0 0 512.000000 512.000000"
 preserveAspectRatio="xMidYMid meet">
<metadata>
Created by potrace 1.14, written by Peter Selinger 2001-2017
</metadata>
<g transform="translate(0.000000,512.000000) scale(0.100000,-0.100000)"
fill="#000000" stroke="none">
<path d="M4640 5092 c-45 -6 -124 -35 -160 -57 -19 -13 -78 -60 -130 -105 -52
-46 -122 -106 -154 -134 -33 -28 -102 -89 -155 -135 -53 -46 -125 -109 -160
-140 -35 -31 -69 -61 -75 -66 -6 -6 -60 -53 -121 -105 -60 -52 -116 -102 -125
-110 -9 -8 -27 -24 -41 -35 -25 -21 -107 -93 -322 -283 l-69 -60 -61 19 c-34
10 -64 18 -67 18 -9 -1 -105 13 -125 18 -11 3 -90 7 -176 8 -312 5 -558 -54
-1077 -259 -303 -119 -518 -244 -659 -383 -141 -140 -174 -192 -298 -468 -32
-72 -110 -300 -141 -415 -34 -124 -68 -292 -79 -401 -7 -60 -8 -246 -2 -319 3
-34 -3 -58 -24 -100 -76 -154 -109 -308 -124 -580 -2 -52 -7 -136 -10 -187
-13 -245 -59 -354 -192 -451 -62 -46 -81 -137 -43 -200 47 -77 297 -141 535
-136 113 3 224 14 275 29 8 3 33 7 55 11 39 6 230 65 270 83 285 131 454 244
648 434 139 135 239 259 313 385 2 4 14 6 152 27 83 12 421 14 467 2 11 -2 45
-8 75 -12 30 -4 111 -18 180 -32 69 -14 136 -27 150 -29 14 -3 41 -9 60 -14
29 -8 194 -42 265 -55 183 -34 239 -40 385 -40 159 0 208 7 316 44 360 123
571 545 520 1036 -8 79 -34 248 -41 267 -2 7 -7 24 -9 38 -22 120 -169 553
-197 584 -5 6 -9 16 -9 23 0 25 -118 263 -167 335 -26 40 -85 110 -129 157
-60 63 -79 89 -70 97 6 6 34 37 61 69 28 32 55 63 60 69 6 6 39 45 75 86 36
41 67 77 70 80 3 3 50 57 105 120 55 63 112 128 126 145 15 16 91 104 170 195
79 91 150 171 157 179 45 46 123 153 140 191 79 178 19 385 -146 499 -66 46
-190 75 -272 63z"/>
</g>
</svg>
