<?xml version="1.0" standalone="no"?>
<!DOCTYPE svg PUBLIC "-//W3C//DTD SVG 20010904//EN"
 "http://www.w3.org/TR/2001/REC-SVG-20010904/DTD/svg10.dtd">
<svg version="1.0" xmlns="http://www.w3.org/2000/svg"
 width="700.000000pt" height="700.000000pt" viewBox="0 0 700.000000 700.000000"
 preserveAspectRatio="xMidYMid meet">
<metadata>
Created by potrace 1.14, written by Peter Selinger 2001-2017
</metadata>
<g transform="translate(0.000000,700.000000) scale(0.100000,-0.100000)"
fill="#000000" stroke="none">
<path d="M6293 6955 c-147 -32 -98 7 -1378 -1112 l-640 -560 -45 14 c-195 59
-544 87 -785 64 -313 -30 -526 -87 -1035 -274 -341 -125 -561 -224 -759 -342
-211 -126 -423 -319 -535 -487 -147 -223 -352 -747 -439 -1128 -63 -273 -71
-347 -73 -640 l-1 -265 -30 -60 c-37 -73 -86 -209 -112 -313 -34 -134 -51
-284 -66 -589 -26 -506 -49 -571 -287 -788 -65 -59 -88 -123 -69 -191 24 -88
76 -132 206 -173 629 -201 1413 -14 2045 487 207 163 520 508 624 685 30 51
22 48 201 74 87 13 184 17 355 17 303 0 404 -14 1005 -143 489 -105 656 -126
908 -118 193 6 311 32 452 101 250 121 442 354 544 661 154 466 80 1067 -224
1828 -183 459 -288 639 -489 837 -42 41 -76 78 -76 83 0 4 201 239 447 520
246 282 522 598 614 703 258 295 279 328 305 479 43 239 -81 479 -301 585
-123 59 -233 73 -362 45z m311 -128 c240 -114 335 -398 210 -628 -29 -52 -30
-54 -763 -894 -999 -1144 -1646 -1875 -1949 -2202 -110 -118 -269 -260 -440
-393 -134 -104 -408 -300 -419 -300 -5 0 -195 189 -422 420 l-413 420 18 28
c122 187 416 562 554 706 156 163 786 726 2045 1827 1220 1067 1146 1005 1254
1041 43 14 78 17 153 15 86 -3 104 -8 172 -40z m-3946 -4173 l422 -426 0 -118
c0 -208 -48 -396 -153 -606 -158 -313 -438 -638 -762 -880 -366 -275 -775
-441 -1194 -485 -138 -14 -383 -7 -504 15 -117 22 -271 72 -303 99 -17 15 -27
36 -31 64 l-6 42 116 113 c97 95 120 125 150 188 67 141 81 236 107 732 17
328 59 517 160 725 77 158 175 287 337 444 244 236 456 372 714 459 131 44
223 58 384 59 l140 2 423 -427z"/>
<path d="M1795 2696 c-223 -59 -379 -150 -533 -310 -114 -121 -162 -201 -162
-275 0 -166 198 -250 310 -132 19 21 52 63 73 95 82 121 234 216 430 266 101
26 115 32 149 68 49 53 66 109 50 168 -16 60 -47 100 -97 124 -53 26 -108 25
-220 -4z"/>
</g>
</svg>
